<mxfile host="app.diagrams.net" agent="Mozilla/5.0 (Windows NT 10.0; Win64; x64) AppleWebKit/537.36 (KHTML, like Gecko) Chrome/137.0.0.0 Safari/537.36" version="27.2.0">
  <diagram name="Página-1" id="8ktKUjLuSopr6MbcSvIK">
    <mxGraphModel dx="872" dy="483" grid="1" gridSize="10" guides="1" tooltips="1" connect="1" arrows="1" fold="1" page="1" pageScale="1" pageWidth="827" pageHeight="1169" math="0" shadow="0">
      <root>
        <mxCell id="0" />
        <mxCell id="1" parent="0" />
        <mxCell id="RnOGg_c4IMyRPbAZXwW1-4" value="" style="rounded=0;whiteSpace=wrap;html=1;" vertex="1" parent="1">
          <mxGeometry x="30" y="20" width="710" height="40" as="geometry" />
        </mxCell>
        <mxCell id="RnOGg_c4IMyRPbAZXwW1-5" value="Bepc." style="text;html=1;align=center;verticalAlign=middle;whiteSpace=wrap;rounded=0;fontStyle=1;fontSize=16;" vertex="1" parent="1">
          <mxGeometry x="50" y="25" width="60" height="30" as="geometry" />
        </mxCell>
        <mxCell id="RnOGg_c4IMyRPbAZXwW1-6" value="Iníco&amp;nbsp; &amp;nbsp; Categorias&amp;nbsp; &amp;nbsp;&amp;nbsp;Cursos&amp;nbsp; &amp;nbsp;&amp;nbsp;Níveis" style="text;html=1;align=left;verticalAlign=middle;whiteSpace=wrap;rounded=0;" vertex="1" parent="1">
          <mxGeometry x="140" y="25" width="250" height="30" as="geometry" />
        </mxCell>
        <mxCell id="RnOGg_c4IMyRPbAZXwW1-7" value="Buscar..." style="rounded=1;whiteSpace=wrap;html=1;fontStyle=2;fontColor=#999999;" vertex="1" parent="1">
          <mxGeometry x="440" y="27.5" width="146" height="25" as="geometry" />
        </mxCell>
        <mxCell id="RnOGg_c4IMyRPbAZXwW1-8" value="+ Criar Aula" style="rounded=1;whiteSpace=wrap;html=1;fillColor=light-dark(#8b8989, #ededed);" vertex="1" parent="1">
          <mxGeometry x="601" y="28" width="80" height="22.5" as="geometry" />
        </mxCell>
        <mxCell id="RnOGg_c4IMyRPbAZXwW1-9" value="" style="rounded=1;whiteSpace=wrap;html=1;fillColor=light-dark(#FFFFFF,#EDEDED);" vertex="1" parent="1">
          <mxGeometry x="690" y="27.75" width="40" height="22.5" as="geometry" />
        </mxCell>
        <mxCell id="RnOGg_c4IMyRPbAZXwW1-10" value="Descubra e Compartilhe&lt;div&gt;Planos de Aula Incríveis!&lt;/div&gt;" style="rounded=0;whiteSpace=wrap;html=1;fontSize=17;" vertex="1" parent="1">
          <mxGeometry x="30" y="60" width="710" height="220" as="geometry" />
        </mxCell>
        <mxCell id="RnOGg_c4IMyRPbAZXwW1-11" value="Criar Aula" style="rounded=1;whiteSpace=wrap;html=1;fillColor=light-dark(#8b8989, #ededed);" vertex="1" parent="1">
          <mxGeometry x="337.5" y="210" width="95" height="30" as="geometry" />
        </mxCell>
        <mxCell id="RnOGg_c4IMyRPbAZXwW1-12" value="" style="rounded=0;whiteSpace=wrap;html=1;fillColor=#E6E6E6;" vertex="1" parent="1">
          <mxGeometry x="30" y="280" width="710" height="150" as="geometry" />
        </mxCell>
        <mxCell id="RnOGg_c4IMyRPbAZXwW1-13" value="Explore por Categorias" style="text;html=1;align=center;verticalAlign=middle;whiteSpace=wrap;rounded=0;fontStyle=1" vertex="1" parent="1">
          <mxGeometry x="277" y="300" width="216" height="30" as="geometry" />
        </mxCell>
        <mxCell id="RnOGg_c4IMyRPbAZXwW1-14" value="Tecnologia" style="rounded=1;whiteSpace=wrap;html=1;fillColor=light-dark(#8b8989, #ededed);" vertex="1" parent="1">
          <mxGeometry x="102.5" y="350" width="95" height="30" as="geometry" />
        </mxCell>
        <mxCell id="RnOGg_c4IMyRPbAZXwW1-15" value="Administração" style="rounded=1;whiteSpace=wrap;html=1;fillColor=light-dark(#8b8989, #ededed);" vertex="1" parent="1">
          <mxGeometry x="222.5" y="350" width="95" height="30" as="geometry" />
        </mxCell>
        <mxCell id="RnOGg_c4IMyRPbAZXwW1-16" value="Filosofia" style="rounded=1;whiteSpace=wrap;html=1;fillColor=light-dark(#8b8989, #ededed);" vertex="1" parent="1">
          <mxGeometry x="342.5" y="350" width="95" height="30" as="geometry" />
        </mxCell>
        <mxCell id="RnOGg_c4IMyRPbAZXwW1-17" value="Matemática" style="rounded=1;whiteSpace=wrap;html=1;fillColor=light-dark(#8b8989, #ededed);" vertex="1" parent="1">
          <mxGeometry x="458" y="350" width="95" height="30" as="geometry" />
        </mxCell>
        <mxCell id="RnOGg_c4IMyRPbAZXwW1-18" value="História" style="rounded=1;whiteSpace=wrap;html=1;fillColor=light-dark(#8b8989, #ededed);" vertex="1" parent="1">
          <mxGeometry x="572.5" y="350" width="95" height="30" as="geometry" />
        </mxCell>
        <mxCell id="RnOGg_c4IMyRPbAZXwW1-19" value="" style="rounded=0;whiteSpace=wrap;html=1;" vertex="1" parent="1">
          <mxGeometry x="30" y="430" width="710" height="400" as="geometry" />
        </mxCell>
        <mxCell id="RnOGg_c4IMyRPbAZXwW1-20" value="Aulas cadastradas recentemente:" style="text;html=1;align=center;verticalAlign=middle;whiteSpace=wrap;rounded=0;fontStyle=1" vertex="1" parent="1">
          <mxGeometry x="55" y="450" width="225" height="30" as="geometry" />
        </mxCell>
        <mxCell id="RnOGg_c4IMyRPbAZXwW1-27" value="" style="group" vertex="1" connectable="0" parent="1">
          <mxGeometry x="60" y="490" width="150" height="130" as="geometry" />
        </mxCell>
        <mxCell id="RnOGg_c4IMyRPbAZXwW1-21" value="" style="rounded=1;whiteSpace=wrap;html=1;arcSize=3;" vertex="1" parent="RnOGg_c4IMyRPbAZXwW1-27">
          <mxGeometry width="150" height="130" as="geometry" />
        </mxCell>
        <mxCell id="RnOGg_c4IMyRPbAZXwW1-24" value="Introdução à logica de programação" style="text;html=1;align=left;verticalAlign=middle;whiteSpace=wrap;rounded=0;fontSize=10;fontStyle=1;spacingTop=0;spacing=3;" vertex="1" parent="RnOGg_c4IMyRPbAZXwW1-27">
          <mxGeometry x="10" y="10" width="130" height="30" as="geometry" />
        </mxCell>
        <mxCell id="RnOGg_c4IMyRPbAZXwW1-25" value="Lorem ipsum dolor sit amet, consectetur adipiscing elit. Donec fermentum neque vel dui euismod scelerisque. Vestibulum" style="text;html=1;align=left;verticalAlign=middle;whiteSpace=wrap;rounded=0;fontSize=8;spacing=11;" vertex="1" parent="RnOGg_c4IMyRPbAZXwW1-27">
          <mxGeometry y="40" width="150" height="50" as="geometry" />
        </mxCell>
        <mxCell id="RnOGg_c4IMyRPbAZXwW1-26" value="Leia mais..." style="rounded=1;whiteSpace=wrap;html=1;fillColor=light-dark(#8b8989, #ededed);fontSize=10;" vertex="1" parent="RnOGg_c4IMyRPbAZXwW1-27">
          <mxGeometry x="27.5" y="95" width="95" height="20" as="geometry" />
        </mxCell>
        <mxCell id="RnOGg_c4IMyRPbAZXwW1-28" value="" style="group" vertex="1" connectable="0" parent="1">
          <mxGeometry x="230" y="490" width="150" height="130" as="geometry" />
        </mxCell>
        <mxCell id="RnOGg_c4IMyRPbAZXwW1-29" value="" style="rounded=1;whiteSpace=wrap;html=1;arcSize=3;" vertex="1" parent="RnOGg_c4IMyRPbAZXwW1-28">
          <mxGeometry width="150" height="130" as="geometry" />
        </mxCell>
        <mxCell id="RnOGg_c4IMyRPbAZXwW1-30" value="Introdução à logica de programação" style="text;html=1;align=left;verticalAlign=middle;whiteSpace=wrap;rounded=0;fontSize=10;fontStyle=1;spacingTop=0;spacing=3;" vertex="1" parent="RnOGg_c4IMyRPbAZXwW1-28">
          <mxGeometry x="10" y="10" width="130" height="30" as="geometry" />
        </mxCell>
        <mxCell id="RnOGg_c4IMyRPbAZXwW1-31" value="Lorem ipsum dolor sit amet, consectetur adipiscing elit. Donec fermentum neque vel dui euismod scelerisque. Vestibulum" style="text;html=1;align=left;verticalAlign=middle;whiteSpace=wrap;rounded=0;fontSize=8;spacing=11;" vertex="1" parent="RnOGg_c4IMyRPbAZXwW1-28">
          <mxGeometry y="40" width="150" height="50" as="geometry" />
        </mxCell>
        <mxCell id="RnOGg_c4IMyRPbAZXwW1-32" value="Leia mais..." style="rounded=1;whiteSpace=wrap;html=1;fillColor=light-dark(#8b8989, #ededed);fontSize=10;" vertex="1" parent="RnOGg_c4IMyRPbAZXwW1-28">
          <mxGeometry x="27.5" y="95" width="95" height="20" as="geometry" />
        </mxCell>
        <mxCell id="RnOGg_c4IMyRPbAZXwW1-33" value="" style="group" vertex="1" connectable="0" parent="1">
          <mxGeometry x="400" y="490" width="150" height="130" as="geometry" />
        </mxCell>
        <mxCell id="RnOGg_c4IMyRPbAZXwW1-34" value="" style="rounded=1;whiteSpace=wrap;html=1;arcSize=3;" vertex="1" parent="RnOGg_c4IMyRPbAZXwW1-33">
          <mxGeometry width="150" height="130" as="geometry" />
        </mxCell>
        <mxCell id="RnOGg_c4IMyRPbAZXwW1-35" value="Introdução à logica de programação" style="text;html=1;align=left;verticalAlign=middle;whiteSpace=wrap;rounded=0;fontSize=10;fontStyle=1;spacingTop=0;spacing=3;" vertex="1" parent="RnOGg_c4IMyRPbAZXwW1-33">
          <mxGeometry x="10" y="10" width="130" height="30" as="geometry" />
        </mxCell>
        <mxCell id="RnOGg_c4IMyRPbAZXwW1-36" value="Lorem ipsum dolor sit amet, consectetur adipiscing elit. Donec fermentum neque vel dui euismod scelerisque. Vestibulum" style="text;html=1;align=left;verticalAlign=middle;whiteSpace=wrap;rounded=0;fontSize=8;spacing=11;" vertex="1" parent="RnOGg_c4IMyRPbAZXwW1-33">
          <mxGeometry y="40" width="150" height="50" as="geometry" />
        </mxCell>
        <mxCell id="RnOGg_c4IMyRPbAZXwW1-37" value="Leia mais..." style="rounded=1;whiteSpace=wrap;html=1;fillColor=light-dark(#8b8989, #ededed);fontSize=10;" vertex="1" parent="RnOGg_c4IMyRPbAZXwW1-33">
          <mxGeometry x="27.5" y="95" width="95" height="20" as="geometry" />
        </mxCell>
        <mxCell id="RnOGg_c4IMyRPbAZXwW1-38" value="" style="group" vertex="1" connectable="0" parent="1">
          <mxGeometry x="570" y="490" width="150" height="130" as="geometry" />
        </mxCell>
        <mxCell id="RnOGg_c4IMyRPbAZXwW1-39" value="" style="rounded=1;whiteSpace=wrap;html=1;arcSize=3;" vertex="1" parent="RnOGg_c4IMyRPbAZXwW1-38">
          <mxGeometry width="150" height="130" as="geometry" />
        </mxCell>
        <mxCell id="RnOGg_c4IMyRPbAZXwW1-40" value="Introdução à logica de programação" style="text;html=1;align=left;verticalAlign=middle;whiteSpace=wrap;rounded=0;fontSize=10;fontStyle=1;spacingTop=0;spacing=3;" vertex="1" parent="RnOGg_c4IMyRPbAZXwW1-38">
          <mxGeometry x="10" y="10" width="130" height="30" as="geometry" />
        </mxCell>
        <mxCell id="RnOGg_c4IMyRPbAZXwW1-41" value="Lorem ipsum dolor sit amet, consectetur adipiscing elit. Donec fermentum neque vel dui euismod scelerisque. Vestibulum" style="text;html=1;align=left;verticalAlign=middle;whiteSpace=wrap;rounded=0;fontSize=8;spacing=11;" vertex="1" parent="RnOGg_c4IMyRPbAZXwW1-38">
          <mxGeometry y="40" width="150" height="50" as="geometry" />
        </mxCell>
        <mxCell id="RnOGg_c4IMyRPbAZXwW1-42" value="Leia mais..." style="rounded=1;whiteSpace=wrap;html=1;fillColor=light-dark(#8b8989, #ededed);fontSize=10;" vertex="1" parent="RnOGg_c4IMyRPbAZXwW1-38">
          <mxGeometry x="27.5" y="95" width="95" height="20" as="geometry" />
        </mxCell>
        <mxCell id="RnOGg_c4IMyRPbAZXwW1-44" value="" style="group" vertex="1" connectable="0" parent="1">
          <mxGeometry x="60" y="630" width="150" height="130" as="geometry" />
        </mxCell>
        <mxCell id="RnOGg_c4IMyRPbAZXwW1-45" value="" style="rounded=1;whiteSpace=wrap;html=1;arcSize=3;" vertex="1" parent="RnOGg_c4IMyRPbAZXwW1-44">
          <mxGeometry width="150" height="130" as="geometry" />
        </mxCell>
        <mxCell id="RnOGg_c4IMyRPbAZXwW1-46" value="Introdução à logica de programação" style="text;html=1;align=left;verticalAlign=middle;whiteSpace=wrap;rounded=0;fontSize=10;fontStyle=1;spacingTop=0;spacing=3;" vertex="1" parent="RnOGg_c4IMyRPbAZXwW1-44">
          <mxGeometry x="10" y="10" width="130" height="30" as="geometry" />
        </mxCell>
        <mxCell id="RnOGg_c4IMyRPbAZXwW1-47" value="Lorem ipsum dolor sit amet, consectetur adipiscing elit. Donec fermentum neque vel dui euismod scelerisque. Vestibulum" style="text;html=1;align=left;verticalAlign=middle;whiteSpace=wrap;rounded=0;fontSize=8;spacing=11;" vertex="1" parent="RnOGg_c4IMyRPbAZXwW1-44">
          <mxGeometry y="40" width="150" height="50" as="geometry" />
        </mxCell>
        <mxCell id="RnOGg_c4IMyRPbAZXwW1-48" value="Leia mais..." style="rounded=1;whiteSpace=wrap;html=1;fillColor=light-dark(#8b8989, #ededed);fontSize=10;" vertex="1" parent="RnOGg_c4IMyRPbAZXwW1-44">
          <mxGeometry x="27.5" y="95" width="95" height="20" as="geometry" />
        </mxCell>
        <mxCell id="RnOGg_c4IMyRPbAZXwW1-49" value="" style="group" vertex="1" connectable="0" parent="1">
          <mxGeometry x="230" y="630" width="150" height="130" as="geometry" />
        </mxCell>
        <mxCell id="RnOGg_c4IMyRPbAZXwW1-50" value="" style="rounded=1;whiteSpace=wrap;html=1;arcSize=3;" vertex="1" parent="RnOGg_c4IMyRPbAZXwW1-49">
          <mxGeometry width="150" height="130" as="geometry" />
        </mxCell>
        <mxCell id="RnOGg_c4IMyRPbAZXwW1-51" value="Introdução à logica de programação" style="text;html=1;align=left;verticalAlign=middle;whiteSpace=wrap;rounded=0;fontSize=10;fontStyle=1;spacingTop=0;spacing=3;" vertex="1" parent="RnOGg_c4IMyRPbAZXwW1-49">
          <mxGeometry x="10" y="10" width="130" height="30" as="geometry" />
        </mxCell>
        <mxCell id="RnOGg_c4IMyRPbAZXwW1-52" value="Lorem ipsum dolor sit amet, consectetur adipiscing elit. Donec fermentum neque vel dui euismod scelerisque. Vestibulum" style="text;html=1;align=left;verticalAlign=middle;whiteSpace=wrap;rounded=0;fontSize=8;spacing=11;" vertex="1" parent="RnOGg_c4IMyRPbAZXwW1-49">
          <mxGeometry y="40" width="150" height="50" as="geometry" />
        </mxCell>
        <mxCell id="RnOGg_c4IMyRPbAZXwW1-53" value="Leia mais..." style="rounded=1;whiteSpace=wrap;html=1;fillColor=light-dark(#8b8989, #ededed);fontSize=10;" vertex="1" parent="RnOGg_c4IMyRPbAZXwW1-49">
          <mxGeometry x="27.5" y="95" width="95" height="20" as="geometry" />
        </mxCell>
        <mxCell id="RnOGg_c4IMyRPbAZXwW1-54" value="" style="group" vertex="1" connectable="0" parent="1">
          <mxGeometry x="400" y="630" width="150" height="130" as="geometry" />
        </mxCell>
        <mxCell id="RnOGg_c4IMyRPbAZXwW1-55" value="" style="rounded=1;whiteSpace=wrap;html=1;arcSize=3;" vertex="1" parent="RnOGg_c4IMyRPbAZXwW1-54">
          <mxGeometry width="150" height="130" as="geometry" />
        </mxCell>
        <mxCell id="RnOGg_c4IMyRPbAZXwW1-56" value="Introdução à logica de programação" style="text;html=1;align=left;verticalAlign=middle;whiteSpace=wrap;rounded=0;fontSize=10;fontStyle=1;spacingTop=0;spacing=3;" vertex="1" parent="RnOGg_c4IMyRPbAZXwW1-54">
          <mxGeometry x="10" y="10" width="130" height="30" as="geometry" />
        </mxCell>
        <mxCell id="RnOGg_c4IMyRPbAZXwW1-57" value="Lorem ipsum dolor sit amet, consectetur adipiscing elit. Donec fermentum neque vel dui euismod scelerisque. Vestibulum" style="text;html=1;align=left;verticalAlign=middle;whiteSpace=wrap;rounded=0;fontSize=8;spacing=11;" vertex="1" parent="RnOGg_c4IMyRPbAZXwW1-54">
          <mxGeometry y="40" width="150" height="50" as="geometry" />
        </mxCell>
        <mxCell id="RnOGg_c4IMyRPbAZXwW1-58" value="Leia mais..." style="rounded=1;whiteSpace=wrap;html=1;fillColor=light-dark(#8b8989, #ededed);fontSize=10;" vertex="1" parent="RnOGg_c4IMyRPbAZXwW1-54">
          <mxGeometry x="27.5" y="95" width="95" height="20" as="geometry" />
        </mxCell>
        <mxCell id="RnOGg_c4IMyRPbAZXwW1-59" value="" style="group" vertex="1" connectable="0" parent="1">
          <mxGeometry x="570" y="630" width="150" height="130" as="geometry" />
        </mxCell>
        <mxCell id="RnOGg_c4IMyRPbAZXwW1-60" value="" style="rounded=1;whiteSpace=wrap;html=1;arcSize=3;" vertex="1" parent="RnOGg_c4IMyRPbAZXwW1-59">
          <mxGeometry width="150" height="130" as="geometry" />
        </mxCell>
        <mxCell id="RnOGg_c4IMyRPbAZXwW1-61" value="Introdução à logica de programação" style="text;html=1;align=left;verticalAlign=middle;whiteSpace=wrap;rounded=0;fontSize=10;fontStyle=1;spacingTop=0;spacing=3;" vertex="1" parent="RnOGg_c4IMyRPbAZXwW1-59">
          <mxGeometry x="10" y="10" width="130" height="30" as="geometry" />
        </mxCell>
        <mxCell id="RnOGg_c4IMyRPbAZXwW1-62" value="Lorem ipsum dolor sit amet, consectetur adipiscing elit. Donec fermentum neque vel dui euismod scelerisque. Vestibulum" style="text;html=1;align=left;verticalAlign=middle;whiteSpace=wrap;rounded=0;fontSize=8;spacing=11;" vertex="1" parent="RnOGg_c4IMyRPbAZXwW1-59">
          <mxGeometry y="40" width="150" height="50" as="geometry" />
        </mxCell>
        <mxCell id="RnOGg_c4IMyRPbAZXwW1-63" value="Leia mais..." style="rounded=1;whiteSpace=wrap;html=1;fillColor=light-dark(#8b8989, #ededed);fontSize=10;" vertex="1" parent="RnOGg_c4IMyRPbAZXwW1-59">
          <mxGeometry x="27.5" y="95" width="95" height="20" as="geometry" />
        </mxCell>
        <mxCell id="RnOGg_c4IMyRPbAZXwW1-64" value="" style="rounded=0;whiteSpace=wrap;html=1;" vertex="1" parent="1">
          <mxGeometry x="30" y="830" width="710" height="70" as="geometry" />
        </mxCell>
        <mxCell id="RnOGg_c4IMyRPbAZXwW1-65" value="Buscar..." style="rounded=1;whiteSpace=wrap;html=1;fontStyle=2;fontColor=#999999;align=left;spacingLeft=11;" vertex="1" parent="1">
          <mxGeometry x="115" y="850" width="540" height="30" as="geometry" />
        </mxCell>
        <mxCell id="RnOGg_c4IMyRPbAZXwW1-66" value="" style="rounded=0;whiteSpace=wrap;html=1;fillColor=#CCCCCC;" vertex="1" parent="1">
          <mxGeometry x="30" y="900" width="710" height="140" as="geometry" />
        </mxCell>
        <mxCell id="RnOGg_c4IMyRPbAZXwW1-67" value="Bepc." style="text;html=1;align=center;verticalAlign=middle;whiteSpace=wrap;rounded=0;fontStyle=1;fontSize=25;" vertex="1" parent="1">
          <mxGeometry x="90" y="950" width="120" height="45" as="geometry" />
        </mxCell>
        <mxCell id="RnOGg_c4IMyRPbAZXwW1-68" value="Informações da Instituição" style="text;html=1;align=left;verticalAlign=middle;whiteSpace=wrap;rounded=0;fontStyle=1;fontSize=15;" vertex="1" parent="1">
          <mxGeometry x="390" y="920" width="280" height="30" as="geometry" />
        </mxCell>
        <mxCell id="RnOGg_c4IMyRPbAZXwW1-69" value="Lorem ipsum dolor sit amet, consectetur adipiscing elit. Donec fermentum neque vel dui euismod scelerisque. Vestibulum eu odio sed velit fermentum bibendum eget id lorem. Fusce molestie, purus tempus ultricies congue, diam massa aliquam orci, in egestas nisi tellus in sem. Phasellus volutpat aliquam augue ac finibus. Pellentesque porttitor nunc sit amet mauris scelerisque pretium. Donec euismod ipsum vitae turpis molestie gravida. Vivamus id velit risus. Aenean mollis vel leo eu suscipit." style="text;html=1;align=left;verticalAlign=middle;whiteSpace=wrap;rounded=0;fontSize=8;" vertex="1" parent="1">
          <mxGeometry x="390" y="950" width="280" height="75" as="geometry" />
        </mxCell>
        <mxCell id="RnOGg_c4IMyRPbAZXwW1-70" value="© Copyright 2025 - Instituição de Ensino.&amp;nbsp;&lt;div&gt;Todos os direitos reservados&lt;/div&gt;" style="rounded=0;whiteSpace=wrap;html=1;fontSize=10;" vertex="1" parent="1">
          <mxGeometry x="30" y="1040" width="710" height="50" as="geometry" />
        </mxCell>
        <mxCell id="RnOGg_c4IMyRPbAZXwW1-76" value="" style="shape=image;html=1;verticalAlign=top;verticalLabelPosition=bottom;labelBackgroundColor=#ffffff;imageAspect=0;aspect=fixed;image=https://cdn0.iconfinder.com/data/icons/phosphor-regular-vol-4/256/shopping-cart-128.png;imageBackground=default;" vertex="1" parent="1">
          <mxGeometry x="700" y="30" width="20" height="20" as="geometry" />
        </mxCell>
      </root>
    </mxGraphModel>
  </diagram>
</mxfile>
